<svg width="10" height="6" viewBox="0 0 10 6" fill="none" xmlns="http://www.w3.org/2000/svg">
<path d="M2.86274 0C1.65111 0 1.04529 0 0.764766 0.239594C0.521356 0.447486 0.392181 0.759341 0.417296 1.07846C0.446241 1.44624 0.874618 1.87462 1.73137 2.73137L3.86863 4.86863C4.26465 5.26465 4.46265 5.46265 4.69098 5.53684C4.89183 5.6021 5.10817 5.6021 5.30902 5.53684C5.53735 5.46265 5.73535 5.26465 6.13137 4.86863L8.26863 2.73137C9.12538 1.87462 9.55376 1.44624 9.5827 1.07846C9.60782 0.759341 9.47864 0.447486 9.23523 0.239594C8.95471 0 8.34889 0 7.13726 0H2.86274Z" fill="#142E15" fill-opacity="0.62"/>
</svg>
