<svg width="20" height="22" viewBox="0 0 20 22" fill="none" xmlns="http://www.w3.org/2000/svg">
<path d="M5.99809 14.9334H9.99809M5.99809 9.93341H13.9981M5.50009 2.43341C3.94409 2.48041 3.01709 2.65341 2.37509 3.29541C1.49609 4.17541 1.49609 5.59041 1.49609 8.42141V14.9274C1.49609 17.7594 1.49609 19.1744 2.37509 20.0544C3.25309 20.9334 4.66809 20.9334 7.49609 20.9334H12.4961C15.3251 20.9334 16.7391 20.9334 17.6171 20.0534C18.4971 19.1744 18.4971 17.7594 18.4971 14.9274V8.42141C18.4971 5.59141 18.4971 4.17541 17.6171 3.29541C16.9761 2.65341 16.0481 2.48041 14.4921 2.43341" stroke="black" stroke-width="1.5" stroke-linecap="round" stroke-linejoin="round"/>
<path d="M5.49609 2.68341C5.49609 1.71741 6.28009 0.933411 7.24609 0.933411H12.7461C13.2102 0.933411 13.6553 1.11779 13.9835 1.44597C14.3117 1.77416 14.4961 2.21928 14.4961 2.68341C14.4961 3.14754 14.3117 3.59266 13.9835 3.92085C13.6553 4.24904 13.2102 4.43341 12.7461 4.43341H7.24609C6.78197 4.43341 6.33685 4.24904 6.00866 3.92085C5.68047 3.59266 5.49609 3.14754 5.49609 2.68341Z" stroke="black" stroke-width="1.5" stroke-linecap="round" stroke-linejoin="round"/>
</svg>
