<svg width="22" height="21" viewBox="0 0 22 21" fill="none" xmlns="http://www.w3.org/2000/svg">
<path d="M21.4225 8.05141C21.3287 7.76315 21.1517 7.50909 20.9138 7.32124C20.6759 7.13339 20.3877 7.02015 20.0856 6.99578L14.5543 6.54953L12.4187 1.38484C12.3032 1.10342 12.1066 0.862701 11.854 0.693285C11.6013 0.523869 11.304 0.433411 10.9998 0.433411C10.6956 0.433411 10.3983 0.523869 10.1456 0.693285C9.89296 0.862701 9.69639 1.10342 9.58089 1.38484L7.44714 6.54859L1.91308 6.99578C1.61043 7.02138 1.32207 7.13572 1.08412 7.32447C0.846168 7.51323 0.66921 7.76801 0.575419 8.0569C0.481627 8.34578 0.475171 8.65592 0.556861 8.94845C0.638551 9.24099 0.804752 9.50291 1.03464 9.70141L5.25339 13.3417L3.96808 18.7848C3.8962 19.0806 3.9138 19.391 4.01865 19.6767C4.1235 19.9623 4.31087 20.2104 4.55698 20.3894C4.80309 20.5685 5.09684 20.6703 5.40093 20.6821C5.70503 20.6938 6.00576 20.6149 6.26496 20.4555L10.9993 17.5417L15.7365 20.4555C15.9958 20.6131 16.2959 20.6904 16.5991 20.6778C16.9022 20.6651 17.1949 20.5631 17.4401 20.3845C17.6854 20.2058 17.8724 19.9586 17.9774 19.674C18.0825 19.3894 18.101 19.08 18.0306 18.7848L16.7406 13.3408L20.9593 9.70047C21.1911 9.5023 21.3588 9.23981 21.4412 8.94625C21.5237 8.65268 21.5172 8.34125 21.4225 8.05141ZM19.9843 8.56422L15.4187 12.5017C15.3146 12.5915 15.2371 12.7081 15.1948 12.8389C15.1525 12.9697 15.1469 13.1096 15.1787 13.2433L16.5737 19.1308C16.5773 19.1389 16.5777 19.1481 16.5747 19.1565C16.5717 19.1648 16.5657 19.1717 16.5578 19.1758C16.5409 19.1889 16.5362 19.1861 16.5221 19.1758L11.3921 16.0211C11.274 15.9485 11.138 15.91 10.9993 15.91C10.8606 15.91 10.7247 15.9485 10.6065 16.0211L5.47652 19.1777C5.46246 19.1861 5.45871 19.1889 5.44089 19.1777C5.43298 19.1736 5.42692 19.1667 5.42395 19.1583C5.42099 19.15 5.42135 19.1408 5.42496 19.1327L6.81996 13.2452C6.85175 13.1114 6.84618 12.9715 6.80385 12.8407C6.76153 12.71 6.68407 12.5933 6.57996 12.5036L2.01433 8.56609C2.00308 8.55672 1.99277 8.54828 2.00214 8.51922C2.01152 8.49016 2.01902 8.49391 2.03308 8.49203L8.02558 8.00828C8.16303 7.99649 8.29456 7.94702 8.40571 7.86531C8.51686 7.78361 8.60332 7.67282 8.65558 7.54516L10.9637 1.95672C10.9712 1.94078 10.974 1.93328 10.9965 1.93328C11.019 1.93328 11.0218 1.94078 11.0293 1.95672L13.3431 7.54516C13.3958 7.67287 13.4828 7.78353 13.5945 7.86493C13.7062 7.94632 13.8382 7.99528 13.9759 8.00641L19.9684 8.49016C19.9825 8.49016 19.9909 8.49016 19.9993 8.51734C20.0078 8.54453 19.9993 8.55484 19.9843 8.56422Z" fill="black"/>
</svg>
