<svg width="20" height="20" viewBox="0 0 20 20" fill="none" xmlns="http://www.w3.org/2000/svg">
<path d="M19.6732 17.5536C19.0303 16.9805 18.4675 16.3235 17.9999 15.6003C17.4888 14.6022 17.1828 13.5118 17.0999 12.3936V9.10026C17.1043 7.344 16.4672 5.64658 15.3084 4.32691C14.1495 3.00724 12.5486 2.15617 10.8065 1.93359V1.07359C10.8065 0.837551 10.7128 0.611176 10.5459 0.444269C10.379 0.277361 10.1526 0.183594 9.91654 0.183594C9.68049 0.183594 9.45412 0.277361 9.28721 0.444269C9.12031 0.611176 9.02654 0.837551 9.02654 1.07359V1.94693C7.30004 2.18555 5.71852 3.04176 4.57489 4.357C3.43126 5.67223 2.80302 7.35736 2.80654 9.10026V12.3936C2.72357 13.5118 2.41756 14.6022 1.90654 15.6003C1.44712 16.3218 0.893333 16.9788 0.25987 17.5536C0.188757 17.6161 0.131764 17.693 0.0926814 17.7792C0.0535988 17.8654 0.033323 17.9589 0.0332031 18.0536V18.9603C0.0332031 19.1371 0.103441 19.3066 0.228465 19.4317C0.353489 19.5567 0.523059 19.6269 0.69987 19.6269H19.2332C19.41 19.6269 19.5796 19.5567 19.7046 19.4317C19.8296 19.3066 19.8999 19.1371 19.8999 18.9603V18.0536C19.8997 17.9589 19.8795 17.8654 19.8404 17.7792C19.8013 17.693 19.7443 17.6161 19.6732 17.5536ZM1.41987 18.2936C2.04 17.6943 2.58611 17.0228 3.04654 16.2936C3.6904 15.0882 4.06566 13.7578 4.14654 12.3936V9.10026C4.1201 8.31895 4.25115 7.54031 4.5319 6.81071C4.81265 6.0811 5.23734 5.41545 5.7807 4.85339C6.32406 4.29134 6.97496 3.84437 7.69466 3.53911C8.41435 3.23385 9.18811 3.07653 9.96987 3.07653C10.7516 3.07653 11.5254 3.23385 12.2451 3.53911C12.9648 3.84437 13.6157 4.29134 14.159 4.85339C14.7024 5.41545 15.1271 6.0811 15.4078 6.81071C15.6886 7.54031 15.8196 8.31895 15.7932 9.10026V12.3936C15.8741 13.7578 16.2493 15.0882 16.8932 16.2936C17.3536 17.0228 17.8997 17.6943 18.5199 18.2936H1.41987Z" fill="#1B281B"/>
</svg>
