<svg width="20" height="22" viewBox="0 0 20 22" fill="none" xmlns="http://www.w3.org/2000/svg">
<path d="M19 8.93341H1M14 0.933411V4.93341M6 0.933411V4.93341M5.8 20.9334H14.2C15.8802 20.9334 16.7202 20.9334 17.362 20.6064C17.9265 20.3188 18.3854 19.8599 18.673 19.2954C19 18.6536 19 17.8136 19 16.1334V7.73341C19 6.05325 19 5.21317 18.673 4.57144C18.3854 4.00695 17.9265 3.54801 17.362 3.26039C16.7202 2.93341 15.8802 2.93341 14.2 2.93341H5.8C4.11984 2.93341 3.27976 2.93341 2.63803 3.26039C2.07354 3.54801 1.6146 4.00695 1.32698 4.57144C1 5.21317 1 6.05325 1 7.73341V16.1334C1 17.8136 1 18.6536 1.32698 19.2954C1.6146 19.8599 2.07354 20.3188 2.63803 20.6064C3.27976 20.9334 4.11984 20.9334 5.8 20.9334Z" stroke="#357937" stroke-width="1.5" stroke-linecap="round" stroke-linejoin="round"/>
</svg>
