<svg width="21" height="22" viewBox="0 0 21 22" fill="none" xmlns="http://www.w3.org/2000/svg">
<path d="M12.8487 14.593C15.2577 14.593 17.2173 12.6334 17.2173 10.2256C17.2173 7.81544 15.2571 5.85584 12.8487 5.85584C10.4397 5.85584 8.47951 7.81604 8.47951 10.2256C8.47951 12.6334 10.4397 14.593 12.8487 14.593ZM12.8487 6.57464C13.8163 6.57607 14.7437 6.96118 15.4277 7.6455C16.1117 8.32983 16.4964 9.25749 16.4973 10.225C16.4962 11.1923 16.1114 12.1196 15.4274 12.8035C14.7434 13.4875 13.816 13.8721 12.8487 13.873C11.8814 13.8721 10.9539 13.4875 10.2698 12.8036C9.58569 12.1197 9.20078 11.1924 9.19951 10.225C9.20011 8.21264 10.8369 6.57464 12.8487 6.57464ZM20.8269 18.7282C20.6355 15.3178 17.5371 15.109 17.4861 15.1072L8.19091 15.1078C8.15971 15.109 5.06071 15.3184 4.86991 18.748V21.3328C4.86991 21.4283 4.90784 21.5199 4.97535 21.5874C5.04286 21.6549 5.13443 21.6928 5.22991 21.6928H20.4669C20.5624 21.6928 20.654 21.6549 20.7215 21.5874C20.789 21.5199 20.8269 21.4283 20.8269 21.3328V18.7282ZM20.1075 20.9728H5.59051L5.58991 18.7678C5.74351 16.0108 8.13031 15.832 8.21071 15.8266L17.4651 15.826C17.5665 15.8326 19.9527 16.0114 20.1069 18.748L20.1075 20.9728ZM5.57071 10.2988H5.57311C6.31291 10.2934 6.95371 10.0282 7.47751 9.50924C8.00191 8.98544 8.26711 8.34464 8.26711 7.60364C8.26711 6.85904 8.00131 6.21704 7.47751 5.69744C6.95311 5.17364 6.31231 4.90784 5.57191 4.90784C4.82731 4.90784 4.18531 5.17364 3.66691 5.69684C3.14251 6.21704 2.87671 6.85904 2.87671 7.60364C2.87671 8.34404 3.14251 8.98544 3.66631 9.50864C4.18591 10.0282 4.82611 10.294 5.57071 10.2988ZM3.98611 6.01544C4.42411 5.57324 4.94371 5.35784 5.57251 5.35784C6.19771 5.35784 6.71731 5.57324 7.16071 6.01724C7.60291 6.45524 7.81831 6.97484 7.81831 7.60424C7.81831 8.23004 7.60291 8.74904 7.16071 9.19064C6.71851 9.62924 6.19831 9.84524 5.57251 9.85004C4.94251 9.84524 4.42291 9.63044 3.98491 9.19124C3.54211 8.74964 3.32671 8.23004 3.32671 7.60424C3.32671 6.97424 3.54211 6.45524 3.98611 6.01544Z" fill="black"/>
<path d="M5.22299 8.62342C5.26363 8.65912 5.3159 8.67875 5.36999 8.67862C5.40217 8.67854 5.43396 8.6716 5.46324 8.65825C5.49252 8.6449 5.51862 8.62546 5.53979 8.60122L7.06319 6.85522C7.10233 6.81027 7.12202 6.75161 7.11791 6.69214C7.1138 6.63267 7.08624 6.57727 7.04129 6.53812C6.99633 6.49898 6.93767 6.47929 6.8782 6.4834C6.81873 6.48751 6.76333 6.51507 6.72419 6.56002L5.34839 8.13682L4.67159 7.55182C4.64929 7.53252 4.62341 7.5178 4.59542 7.50849C4.56743 7.49919 4.53788 7.49549 4.50847 7.49761C4.47905 7.49973 4.45033 7.50762 4.42397 7.52083C4.3976 7.53405 4.37409 7.55232 4.35479 7.57462C4.33548 7.59692 4.32076 7.6228 4.31146 7.65079C4.30216 7.67878 4.29846 7.70833 4.30058 7.73775C4.30269 7.76716 4.31058 7.79588 4.3238 7.82224C4.33701 7.84861 4.35529 7.87212 4.37759 7.89142L5.22299 8.62342ZM10.0776 4.81342C10.0776 4.81342 10.182 4.66342 10.4484 4.57342C10.6542 4.50382 10.7856 4.48282 10.7856 4.48282V2.73142C10.7856 2.27062 10.4448 1.87102 9.92519 1.87102H8.60879V2.57902H10.0776V4.81342ZM3.39539 3.60922H7.73999C7.96199 3.60922 8.17019 3.45322 8.17019 3.17062V2.14342C8.17019 1.75222 7.85879 1.43242 7.46819 1.43242H7.30139C7.10819 0.682423 6.37499 0.133423 5.56319 0.133423C4.75139 0.133423 4.01819 0.682423 3.82559 1.43242H3.66719C3.27659 1.43242 2.95679 1.75222 2.95679 2.14342V3.17062C2.95679 3.42502 3.14219 3.60922 3.39539 3.60922ZM5.56319 1.00222C6.04439 1.00222 6.43199 1.38982 6.43199 1.87102C6.43199 2.35222 6.04439 2.73982 5.56319 2.73982C5.44903 2.74006 5.33595 2.71775 5.23043 2.67417C5.12492 2.6306 5.02905 2.56661 4.94832 2.48589C4.8676 2.40516 4.80361 2.30929 4.76004 2.20378C4.71646 2.09826 4.69415 1.98518 4.69439 1.87102C4.69439 1.38982 5.08199 1.00222 5.56319 1.00222Z" fill="black"/>
<path d="M7.57113 12.4679H1.05753V2.57873H2.52633V1.87073H1.21053C0.749731 1.87073 0.359131 2.26973 0.359131 2.73113V12.3239C0.359131 12.7847 0.749731 13.1663 1.21053 13.1663H8.24733C8.24733 13.1669 7.71453 12.9461 7.57113 12.4679Z" fill="black"/>
</svg>
